/* XPM */
static char *result[] = {
/* columns rows colors chars-per-pixel */
"32 32 7 1 ",
"  c #2C282E",
". c #373737",
"X c #2D5B48",
"o c #605464",
"O c gray68",
"+ c #F68C96",
"@ c gray82",
/* pixels */
"XXooooooooo ooooooooo oooooooooX",
"XXXXooooooo oooooooXX oXXooooooo",
"oXXoooooooo ooooooooX oooXoooooo",
"oXooooooooo ooooooooo ooooooooXo",
"ooooooooooX ooooooooo oooooooXoo",
"                                ",
"oooooo oooooo.....ooooXoX oooXoo",
"oooooo oooo..@@@@@..ooooX.ooooXo",
"oooooo ooo.@@@@@@@@@.ooo.@.ooooo",
"oXoooo oo.@@@@@@@@@@@.oo.@..oooo",
"oXoooo oo.@@@@@@@@@@@.oo.@@@.ooo",
"oXXooo o.@@@.@@@@@.@@@..@...oooo",
"        .@@...@@@...@@.O.       ",
"oooooooo.@@@.@@@@@.@@@..oooooooo",
"oooooooo.@@+@@.@.@@+@@.Xoooooooo",
"oooooo.oo.@@@@@@@@@@@.oo.ooooooo",
"ooooo.@.oo.OO@@@@@OO. o.@.oooooo",
"ooooo.@@.....@@@@@.....@@.ooooXo",
"Xooooo.@@OOO.@.@.@.OOO@@.oooXXXo",
"     .@O.....O.O.O.....O@.      ",
"ooooo.O.o.OO..o. ..oooo.O. ooooo",
"oooooo.o.O..O.oo Xoooooo.o ooXoo",
"oooooo .@..O.ooo Xo.ooX.oo oooXo",
"oooooX .@..O.ooo o.O.X.O.X ooooo",
"ooooXX X.@..O.oo oo.@.o.@. ooooo",
"         .@@.      .@..@.       ",
"oXXooooooo..oooooooX.@@.oooXXooo",
"oXooooooooo ooooooooX..ooooooXoo",
"ooooooooooX oooooooooX Xoooooooo",
"ooooooooooX XoooooooXo oXooooooo",
"XooooooooXX oXoooooooo ooXoooooo",
"XXXoooooooo oooooooooo ooooooooX"
};
