/* XPM */
static char *result[] = {
/* columns rows colors chars-per-pixel */
"32 32 25 1 ",
"  c #2C282E",
". c #373737",
"X c #40231E",
"o c #643932",
"O c #2D5B48",
"+ c #605464",
"@ c #E46712",
"# c #F67D2A",
"$ c #F64E4E",
"% c #D95763",
"& c #FF6B79",
"* c #37946E",
"= c #FBF236",
"- c #88BF55",
"; c #E49748",
": c #FF9146",
"> c #F6EF5F",
", c #E5FF5D",
"< c #76428A",
"1 c #4960ED",
"2 c #F675CD",
"3 c #639BFF",
"4 c #5FCDE4",
"5 c #B6B6B6",
"6 c #FF97A0",
/* pixels */
"OO+++++++++ +++++++++ +++++++++O",
"OOOO+++++++ +++++++OO +OO+++++++",
"+OO++++++++ ++++++++O +++O++++++",
"+O+++++++++ +++++++++ ++++++++O+",
"++++++++++O +++++++++ +++++++O++",
"             ......             ",
"++++++ ++++..XXXXXX..+O+O +++O++",
"++++++ +++.XX......XX.++O ++++O+",
"++++++ ++.X..++O ++..X.+O ++++++",
"+O++++ +.X.++......++.X.+ ++++++",
"+O++++ +.X...###>##...X.+ ++++++",
"+OO+++ +.X##**<><>6*##X.+ ++++++",
"        .X#*6@6<$6>6@#X.        ",
"+++++++.@#:&$&,,$$&21:#@.+++++++",
"++++++.@##@:&&55,&&1:@##@.++++++",
"++++++.##@##::::::::##@##.++++++",
"+++++.@#@##@##@##@##@##@#@.+++++",
"+++++.@#@ooo##@##@##ooo@#@.+++O+",
"O++++.@#@#o=o#@##@#o=o#@#@.+OOO+",
"     .@#@##o##@##@##o##@#@.     ",
"+++++.@#@##@##@##@##@##@#@.+++++",
"++++++.#@##o#o@o#o#o@o#@#. ++O++",
"++++++.@#@##ooooooooo#@#@. +++O+",
"+++++3 .@#@##o#o#o#o#@#@.O +++++",
"++++OO3O.@#@##@##@#@#@@.OO4+++++",
"     3   .@@@#@##@#@@@. -3      ",
"+OO+++%+%+...@@@@@@... +--+OO+++",
"+O+++++%=%+ +......+O; ;+++++O++",
"++++++%+%+% ++++++++;;;O++++++++",
"++++++++++O O+++++++O+ +O+++++++",
"O++++++++OO +O++++++++ ++O++++++",
"OOO++++++++ ++++++++++ ++++++++O"
};
