/* XPM */
static char *result[] = {
/* columns rows colors chars-per-pixel */
"32 32 10 1 ",
"  c #2C282E",
". c #373737",
"X c #2D5B48",
"o c #605464",
"O c #B6B148",
"+ c #76428A",
"@ c #7891BF",
"# c gray68",
"$ c #F68C96",
"% c gray82",
/* pixels */
"XXooooooooo ooooooooo oooooooooX",
"XXXXooooooo oooooooXX oXXooooooo",
"oXXoooooooo ooooooooX oooXoooooo",
"oXooooooooo ooooooooo ooooooooXo",
"ooooooooooX ooooooooo oooooooXoo",
"                        +       ",
"oooooo +oooooX.....oooX+O+oooXoo",
"oooooo+O+ooo..%%%%%..ooo+ ooooXo",
"oooooo +ooo.%%%%%%%%%.oo+ oooooo",
"oXoooo ooo.%%%%%%%%%%%.oo Oooooo",
"oXoooo +o.%%...%%%...%%.o oooooo",
"oXXooo oo.%%%%%%%%%%%%%.o oooooo",
"        .%%%$%%..%%%$%%%.       ",
"oooooooo.%%%%%%%@%%%%%%%.ooooooo",
"oooooooo.%.%%%%%%%%%.%%%.ooooooo",
"oooooooo.%.%.%%%%%%%.%.%.ooooooo",
"oooooooo.%%.#%%%%%%%%.#%.ooooooo",
"ooooooooo.%%%%%%%%%%%%%.ooooooXo",
"XoooooooX.%%%%%%%%%%%%%.ooooXXXo",
"          .%%%%%%%%%%%.         ",
"oooooo oooo.%%%%%%%%%%.ooo ooooo",
"oooooo ooooo..##%%%%#.oooo ooXoo",
"oooooo ooooooo..##%#.oXooo oooXo",
"oooooX Xoooooooo.####.oooX ooooo",
"ooooXX XXooooooo ....oooXX ooooo",
"               @@@              ",
"oXXoooooooo oooooooXoX ooooXXooo",
"oXooooooooo ooooooooXX ooooooXoo",
"ooooooooooX oooooooooX Xoooooooo",
"ooooooooooX XoooooooXo oXooooooo",
"XooooooooXX oXoooooooo ooXoooooo",
"XXXoooooooo oooooooooo ooooooooX"
};
