/* XPM */
static char *result[] = {
/* columns rows colors chars-per-pixel */
"32 32 3 1 ",
"  c #2C282E",
". c #2D5B48",
"X c #605464",
/* pixels */
"..XXXXXXXXX XXXXXXXXX XXXXXXXXX.",
"....XXXXXXX XXXXXXX.. X..XXXXXXX",
"X..XXXXXXXX XXXXXXXX. XXX.XXXXXX",
"X.XXXXXXXXX XXXXXXXXX XXXXXXXX.X",
"XXXXXXXXXX. XXXXXXXXX XXXXXXX.XX",
"                                ",
"XXXXXX XXXXXX... XXXXX.X. XXX.XX",
"XXXXXX XXXXXXXX. XXXXXXX. XXXX.X",
"XXXXXX XXXXXXXX. XXXXXXX. XXXXXX",
"X.XXXX XXXXXXXXX XXXXXXXX XXXXXX",
"X.XXXX XXXXXXXXX XXXXXXXX XXXXXX",
"X..XXX XXXXXXXXX .XXXXXXX XXXXXX",
"                                ",
"XXXXXXXXXXX XXXXXXXXX .XXXXXXXXX",
"XXXXXXXXXXX XXXXXXXXX X.XXXXXXXX",
"XXXXXXXXXXX XXXXXXXXX XXXXXXXXXX",
"XXXXXXXXXX. XXXXXXXXX XXXXXXXXXX",
"XXXXXXXXX.. .XXXXXXXX XXXXXXXX.X",
".XXXXXXX... ...XXXXXX XXXXXX...X",
"                                ",
"XXXXXX XXXXXXXXX ..XXXXXXX XXXXX",
"XXXXXX XXXXXXXXX .XXXXXXXX XX.XX",
"XXXXXX XXXXXXXXX .XXXX.XXX XXX.X",
"XXXXX. .XXXXXXXX XXXX.XXX. XXXXX",
"XXXX.. ..XXXXXXX XXXXXXX.. XXXXX",
"                                ",
"X..XXXXXXXX XXXXXXX.X. XXXX..XXX",
"X.XXXXXXXXX XXXXXXXX.. XXXXXX.XX",
"XXXXXXXXXX. XXXXXXXXX. .XXXXXXXX",
"XXXXXXXXXX. .XXXXXXX.X X.XXXXXXX",
".XXXXXXXX.. X.XXXXXXXX XX.XXXXXX",
"...XXXXXXXX XXXXXXXXXX XXXXXXXX."
};
